<?xml version="1.0" encoding="iso-8859-1"?>
<!-- Generator: Adobe Illustrator 19.0.0, SVG Export Plug-In . SVG Version: 6.00 Build 0)  -->
<svg version="1.1" id="Layer_1" xmlns="http://www.w3.org/2000/svg" xmlns:xlink="http://www.w3.org/1999/xlink" x="0px" y="0px"
	 viewBox="0 0 512 512" style="enable-background:new 0 0 512 512;" xml:space="preserve">
<g>
	<g>
		<g>
			<path d="M456.081,427.563c-4.198-2.099-9.327-0.393-11.435,3.814c-2.116,4.207-0.41,9.336,3.797,11.452
				c0.461,0.23,46.49,23.834,46.49,60.638c0,4.71,3.823,8.533,8.533,8.533s8.533-3.823,8.533-8.533
				C512,456.073,458.368,428.706,456.081,427.563z"/>
			<path d="M55.919,427.563C53.632,428.706,0,456.073,0,503.467C0,508.177,3.823,512,8.533,512s8.533-3.823,8.533-8.533
				c0-36.804,46.029-60.407,46.49-60.638c4.207-2.116,5.914-7.245,3.797-11.452C65.246,427.17,60.134,425.472,55.919,427.563z"/>
			<path d="M116.267,230.4c4.71,0,8.849-3.746,8.849-8.465c0-4.71-3.507-8.457-8.218-8.457c-1.587-0.956-5.965-8.823-5.965-25.745
				c0-7.083,10.547-36.147,16.171-47.386c17.118-34.253,42.138-37.948,52.096-37.948c1.954,0,2.859,0.657,3.541,1.365
				c2.611,2.688,3.635,8.465,3.908,12.535c-34.227,36.77-50.116,101.222-50.116,165.299c0,9.532,0.529,18.492,1.57,26.607
				c0.597,4.685,4.89,8.013,9.549,7.381c4.676-0.597,7.979-4.873,7.373-9.549c-0.939-7.407-1.425-15.625-1.425-24.439
				c0-89.199,31.659-179.2,102.4-179.2s102.4,90.001,102.4,179.2c0,9.199-0.521,17.715-1.545,25.31
				c-0.623,4.676,2.654,8.969,7.322,9.6c0.393,0.051,0.777,0.077,1.152,0.077c4.207,0,7.868-3.115,8.448-7.398
				c1.118-8.346,1.69-17.63,1.69-27.588c0-64.068-15.889-128.521-50.108-165.291c0.265-4.096,1.297-9.856,3.9-12.544
				c0.683-0.708,1.587-1.365,3.541-1.365c9.958,0,34.978,3.695,52.096,37.948c5.623,11.238,16.171,40.303,16.171,47.386
				c0,16.205-3.831,24.141-5.478,25.609c-4.48,0.265-8.03,3.977-8.03,8.525c0,4.71,3.823,8.533,8.533,8.533
				c13.594,0,22.042-16.35,22.042-42.667c0-12.322-13.5-46.071-17.963-55.014C378.786,89.95,345.933,85.333,332.8,85.333
				c-6.212,0-11.699,2.287-15.855,6.613c-3.098,3.217-5.043,7.219-6.34,11.179C295.296,91.844,277.154,85.333,256,85.333
				c-21.154,0-39.296,6.511-54.605,17.792c-1.297-3.959-3.243-7.962-6.34-11.179c-4.156-4.326-9.643-6.613-15.855-6.613
				c-13.133,0-45.986,4.617-67.371,47.386c-4.463,8.943-17.963,42.692-17.963,55.014C93.867,213.658,102.656,230.4,116.267,230.4z"
				/>
			<path d="M221.867,332.8c12.919,0,25.933-4.352,34.133-12.826c8.201,8.474,21.214,12.826,34.133,12.826
				c4.71,0,8.533-3.823,8.533-8.533s-3.823-8.533-8.533-8.533c-6.989,0-18.773-2.313-23.475-9.89
				c13.722-3.294,23.475-12.706,23.475-24.243c0-14.353-14.993-25.6-34.133-25.6s-34.133,11.247-34.133,25.6
				c0,11.537,9.754,20.949,23.475,24.243c-4.702,7.578-16.486,9.89-23.475,9.89c-4.71,0-8.533,3.823-8.533,8.533
				S217.156,332.8,221.867,332.8z M238.933,281.6c0-3.396,6.81-8.533,17.067-8.533c10.419,0,17.067,5.052,17.067,8.533
				c0,3.482-6.648,8.533-17.067,8.533C245.743,290.133,238.933,284.996,238.933,281.6z"/>
			<path d="M307.2,204.8c0-9.412-7.654-17.067-17.067-17.067c-9.412,0-17.067,7.654-17.067,17.067
				c0,9.412,7.654,17.067,17.067,17.067C299.546,221.867,307.2,214.212,307.2,204.8z"/>
			<path d="M256,0C163.866,0,84.693,56.465,51.2,136.593V49.63c9.916-3.541,17.067-12.919,17.067-24.03
				c0-14.114-11.486-25.6-25.6-25.6s-25.6,11.486-25.6,25.6c0,11.11,7.151,20.489,17.067,24.021v172.245
				c0,53.786,19.243,103.142,51.2,141.594v67.354c0,2.628,1.22,5.12,3.294,6.733c48.316,37.547,106.189,57.387,167.373,57.387
				s119.066-19.84,167.373-57.387c2.074-1.613,3.294-4.105,3.294-6.733V363.46c31.957-38.451,51.2-87.808,51.2-141.594
				C477.867,99.533,378.334,0,256,0z M42.667,34.133c-4.702,0-8.533-3.831-8.533-8.533c0-4.702,3.831-8.533,8.533-8.533
				c4.702,0,8.533,3.831,8.533,8.533C51.2,30.302,47.369,34.133,42.667,34.133z M409.6,426.598
				c-44.612,33.553-97.63,51.268-153.6,51.268c-55.97,0-108.979-17.715-153.6-51.268v-44.86
				c39.902,38.349,94.029,61.995,153.6,61.995c59.571,0,113.698-23.646,153.6-61.995V426.598z M413.175,352.981
				c-1.109,0.811-2.039,1.818-2.654,3.063c-37.572,43.221-92.894,70.622-154.522,70.622c-112.922,0-204.8-91.878-204.8-204.8
				s91.878-204.8,204.8-204.8s204.8,91.878,204.8,204.8C460.8,271.71,442.88,317.432,413.175,352.981z"/>
			<path d="M238.933,204.8c0-9.412-7.654-17.067-17.067-17.067c-9.412,0-17.067,7.654-17.067,17.067
				c0,9.412,7.654,17.067,17.067,17.067C231.279,221.867,238.933,214.212,238.933,204.8z"/>
			<path d="M404.48,308.907C403.823,309.402,337.545,358.4,256,358.4c-81.34,0-147.823-49.007-148.48-49.493
				c-3.78-2.825-9.122-2.057-11.947,1.715c-2.825,3.772-2.065,9.114,1.707,11.938c2.876,2.159,71.543,52.907,158.72,52.907
				s155.844-50.748,158.72-52.907c3.772-2.825,4.531-8.175,1.707-11.947C413.611,306.85,408.26,306.082,404.48,308.907z"/>
		</g>
	</g>
</g>
<g>
</g>
<g>
</g>
<g>
</g>
<g>
</g>
<g>
</g>
<g>
</g>
<g>
</g>
<g>
</g>
<g>
</g>
<g>
</g>
<g>
</g>
<g>
</g>
<g>
</g>
<g>
</g>
<g>
</g>
</svg>
